<svg xmlns="http://www.w3.org/2000/svg" width="24" height="24" viewBox="0 0 24 24" fill="none" stroke="currentColor"
    stroke-width="2" stroke-linecap="round" stroke-linejoin="round">
    <path d="M12 2a8 8 0 0 0-8 8c0 2.3 1 4.5 2.6 6l-.6 8h12l-.6-8c1.6-1.5 2.6-3.7 2.6-6a8 8 0 0 0-8-8Z"></path>
    <path d="M12 11.5V11"></path>
    <path d="M10 5.5C10.3 5.2 10.6 5 11 5c1 0 2 1.3 2 3s-1 3-2 3c-.4 0-.7-.2-1-.5"></path>
    <path d="M10 10.5c-.5.3-.9.8-1 1.5-.1.8.2 1.9 1 3"></path>
    <path d="M14 13c.8-1.1 1.1-2.2 1-3-.1-.7-.5-1.2-1-1.5"></path>
    <path d="M16 9c.9-.9 1.6-2 1.8-3.3a2.7 2.7 0 0 0-.5-2.2"></path>
    <path d="M18 12c1-.2 2-1.5 2-3 0-2-1-3-2-3"></path>
    <path d="M6 6.5c-1 0-2 1-2 3s1 2.8 2 3"></path>
    <path d="M6.5 3.5C6.8 3.2 7.3 3 7.8 3c1.3 0 2.3 1.7 2.2 3"></path>
</svg>